<svg xmlns="http://www.w3.org/2000/svg" version="1.1" xmlns:xlink="http://www.w3.org/1999/xlink" xmlns:svgjs="http://svgjs.dev/svgjs" width="1000" height="1000" viewBox="0 0 1000 1000"><rect width="1000" height="1000" fill="#000000"></rect><g transform="matrix(0.7,0,0,0.7,150.00008093749994,106.25)"><svg viewBox="0 0 320 360" data-background-color="#636365" preserveAspectRatio="xMidYMid meet" height="1125" width="1000" xmlns="http://www.w3.org/2000/svg" xmlns:xlink="http://www.w3.org/1999/xlink"><g id="tight-bounds" transform="matrix(1,0,0,1,-0.0000369999999634274,0)"><svg viewBox="0 0 320 360" height="360" width="320"><g><svg></svg></g><g><svg viewBox="0 0 320 360" height="360" width="320"><g><path transform="translate(-29.57346,-9.38389) scale(3.79147,3.79147)" d="M50 13.6c19.1 0 34.8 14.8 36.3 33.5h5.9c-0.3-4.7-1.4-9.2-3.2-13.5-2.1-5-5.2-9.6-9.1-13.4-3.9-3.9-8.4-6.9-13.4-9.1-5.3-2.2-10.8-3.4-16.5-3.4-5.7 0-11.2 1.1-16.5 3.3-5 2.1-9.6 5.2-13.4 9.1-3.9 3.9-6.9 8.4-9.1 13.4-1.8 4.3-2.9 8.9-3.2 13.5h5.9c1.5-18.6 17.2-33.4 36.3-33.4zM50 86.4c-19.1 0-34.8-14.8-36.3-33.5h-5.9c0.3 4.7 1.4 9.2 3.2 13.5 2.1 5 5.2 9.6 9.1 13.4 3.9 3.9 8.4 6.9 13.4 9.1 5.2 2.2 10.7 3.3 16.5 3.3 5.8 0 11.2-1.1 16.5-3.3 5-2.1 9.6-5.2 13.4-9.1 3.9-3.9 6.9-8.4 9.1-13.4 1.8-4.3 2.9-8.9 3.2-13.5h-5.9c-1.5 18.7-17.2 33.5-36.3 33.5z" fill="#ffffff" fill-rule="nonzero" stroke="none" stroke-width="1" stroke-linecap="butt" stroke-linejoin="miter" stroke-miterlimit="10" stroke-dasharray="" stroke-dashoffset="0" font-family="none" font-weight="none" font-size="none" text-anchor="none" style="mix-blend-mode: normal" data-fill-palette-color="tertiary"></path></g><g transform="matrix(1,0,0,1,101.23874182551415,90)"><svg viewBox="0 0 117.52251634897169 180" height="180" width="117.52251634897169"><g><svg viewBox="0 0 208 318.57724939130435" height="180" width="117.52251634897169"><g transform="matrix(1,0,0,1,0,164.83811895652173)"><svg viewBox="0 0 208 153.73913043478262" height="153.73913043478262" width="208"><g id="textblocktransform"><svg viewBox="0 0 208 153.73913043478262" height="153.73913043478262" width="208" id="textblock"><g><svg viewBox="0 0 208 153.73913043478262" height="153.73913043478262" width="208"><g transform="matrix(1,0,0,1,0,0)"><svg width="208" viewBox="3.8 -36.55 49.45 36.55" height="153.73913043478262" data-palette-color="#ffffff"><path d="M5.45 0L5.45 0Q4.8 0 4.3-0.33 3.8-0.65 3.8-1.3L3.8-1.3 3.8-35.3Q3.8-36 4.3-36.27 4.8-36.55 5.45-36.55L5.45-36.55Q6.05-36.55 6.5-36.23 6.95-35.9 7.35-35.4 7.75-34.9 8.05-34.25L8.05-34.25 21.55-7.65 21.55-35.35Q21.55-36 22.05-36.27 22.55-36.55 23.2-36.55L23.2-36.55Q23.8-36.55 24.33-36.27 24.85-36 24.85-35.35L24.85-35.35 24.85-1.3Q24.85-0.65 24.33-0.33 23.8 0 23.2 0L23.2 0Q22.5 0 21.95-0.6 21.4-1.2 21-1.9L21-1.9 7.1-28.95 7.1-1.3Q7.1-0.65 6.58-0.33 6.05 0 5.45 0ZM43.4 0L33.95 0Q33.3 0 32.87-0.38 32.45-0.75 32.45-1.25L32.45-1.25 32.45-35.3Q32.45-35.9 32.92-36.23 33.4-36.55 33.95-36.55L33.95-36.55 42.15-36.55Q44.95-36.55 47.27-35.9 49.6-35.25 50.97-33.43 52.35-31.6 52.35-28.05L52.35-28.05Q52.35-24.9 51.17-22.78 50-20.65 48.1-19.8L48.1-19.8Q49.65-19.2 50.8-18.15 51.95-17.1 52.6-15.45 53.25-13.8 53.25-11.2L53.25-11.2 53.25-10.3Q53.25-6.5 51.95-4.25 50.65-2 48.4-1 46.15 0 43.4 0L43.4 0ZM35.75-18.4L35.75-3.05 42.95-3.05Q46.25-3.05 48.1-4.83 49.95-6.6 49.95-10.45L49.95-10.45 49.95-11.3Q49.95-15.2 48.1-16.8 46.25-18.4 42.95-18.4L42.95-18.4 35.75-18.4ZM35.75-33.5L35.75-21.25 42.25-21.25Q45.75-21.25 47.4-22.7 49.05-24.15 49.05-27.7L49.05-27.7Q49.05-30.05 48.15-31.3 47.25-32.55 45.7-33.02 44.15-33.5 42.05-33.5L42.05-33.5 35.75-33.5Z" opacity="1" transform="matrix(1,0,0,1,0,0)" fill="#ffffff" class="wordmark-text-0" data-fill-palette-color="primary" id="text-0"></path></svg></g></svg></g></svg></g></svg></g><g transform="matrix(1,0,0,1,39.727999999999994,0)"><svg viewBox="0 0 128.544 128.54399999999998" height="128.54399999999998" width="128.544"><g><svg></svg></g><g id="icon-0"><svg viewBox="0 0 128.544 128.54399999999998" height="128.54399999999998" width="128.544"><g><path transform="scale(1.28544,1.28544)" d="M30 100c-16.569 0-30-13.431-30-30v-40c0-16.569 13.431-30 30-30h40c16.569 0 30 13.431 30 30v40c0 16.569-13.431 30-30 30z" fill="#ffffff" fill-rule="nonzero" stroke="none" stroke-width="1" stroke-linecap="butt" stroke-linejoin="miter" stroke-miterlimit="10" stroke-dasharray="" stroke-dashoffset="0" font-family="none" font-weight="none" font-size="none" text-anchor="none" style="mix-blend-mode: normal" data-fill-palette-color="accent"></path></g><g transform="matrix(1,0,0,1,25.899941232875896,25.70879999999999)"><svg viewBox="0 0 76.74411753424822 77.1264" height="77.1264" width="76.74411753424822"><g><svg xmlns="http://www.w3.org/2000/svg" xmlns:xlink="http://www.w3.org/1999/xlink" version="1.1" x="0" y="0" viewBox="0.00038639930831049774 0 99.50437357718158 100.00003081458739" enable-background="new 0 0 99.504 100" xml:space="preserve" width="76.74411753424822" height="77.1264" class="icon-z$-0" data-fill-palette-color="quaternary" id="z$-0"><path d="M92.247 100L7.326 99.948c-5.208 0-8.366-4.128-7.012-9.154l1.94-7.109c1.354-5.052 6.738-9.153 11.947-9.153h70.853c5.215 0 10.631 4.102 12.057 9.114l2.051 7.253C100.581 95.911 97.462 100.013 92.247 100z" fill="#000000" data-fill-palette-color="quaternary"></path><path d="M93.335 0H6.18C3.895 0 2.052 1.849 2.052 4.127v60.704c0 2.278 1.842 4.127 4.127 4.127h87.155c2.285 0 4.127-1.849 4.127-4.127V4.127C97.462 1.849 95.62 0 93.335 0zM89.214 60.703H10.301V8.255h78.913V60.703z" fill="#000000" data-fill-palette-color="quaternary"></path></svg></g></svg></g></svg></g></svg></g><g></g></svg></g></svg></g></svg></g><defs></defs></svg><rect width="320" height="360" fill="none" stroke="none" visibility="hidden"></rect></g></svg></g></svg>